<svg width="213" height="20" viewBox="0 0 213 20" fill="none" xmlns="http://www.w3.org/2000/svg">
<path d="M0.448864 19V5.90909H4.07955V19H0.448864ZM2.27273 4.22159C1.73295 4.22159 1.26989 4.04261 0.883523 3.68466C0.502841 3.32102 0.3125 2.88636 0.3125 2.38068C0.3125 1.88068 0.502841 1.4517 0.883523 1.09375C1.26989 0.730113 1.73295 0.548295 2.27273 0.548295C2.8125 0.548295 3.27273 0.730113 3.65341 1.09375C4.03977 1.4517 4.23295 1.88068 4.23295 2.38068C4.23295 2.88636 4.03977 3.32102 3.65341 3.68466C3.27273 4.04261 2.8125 4.22159 2.27273 4.22159ZM17.88 9.64205L14.5561 9.84659C14.4993 9.5625 14.3771 9.30682 14.1896 9.07955C14.0021 8.84659 13.755 8.66193 13.4482 8.52557C13.147 8.38352 12.7862 8.3125 12.3658 8.3125C11.8033 8.3125 11.3288 8.43182 10.9425 8.67045C10.5561 8.90341 10.3629 9.21591 10.3629 9.60795C10.3629 9.92045 10.4879 10.1847 10.7379 10.4006C10.9879 10.6165 11.4169 10.7898 12.0249 10.9205L14.3942 11.3977C15.6669 11.6591 16.6158 12.0795 17.2408 12.6591C17.8658 13.2386 18.1783 14 18.1783 14.9432C18.1783 15.8011 17.9254 16.554 17.4197 17.2017C16.9197 17.8494 16.2322 18.3551 15.3572 18.7188C14.4879 19.0767 13.4851 19.2557 12.3487 19.2557C10.6158 19.2557 9.23509 18.8949 8.20668 18.1733C7.18395 17.446 6.58452 16.4574 6.40838 15.2074L9.9794 15.0199C10.0874 15.5483 10.3487 15.9517 10.7635 16.2301C11.1783 16.5028 11.7095 16.6392 12.3572 16.6392C12.9936 16.6392 13.505 16.517 13.8913 16.2727C14.2834 16.0227 14.4822 15.7017 14.4879 15.3097C14.4822 14.9801 14.343 14.7102 14.0703 14.5C13.7976 14.2841 13.3771 14.1193 12.8089 14.0057L10.5419 13.554C9.26349 13.2983 8.31179 12.8551 7.68679 12.2244C7.06747 11.5937 6.75781 10.7898 6.75781 9.8125C6.75781 8.97159 6.98509 8.24716 7.43963 7.6392C7.89986 7.03125 8.54474 6.5625 9.37429 6.23295C10.2095 5.90341 11.1868 5.73864 12.3061 5.73864C13.9595 5.73864 15.2607 6.08807 16.2095 6.78693C17.1641 7.4858 17.7209 8.4375 17.88 9.64205ZM18.0866 4.58807V1.54545H32.4219V4.58807H27.0781V19H23.4304V4.58807H18.0866ZM38.3452 11.4318V19H34.7145V1.54545H38.2429V8.21875H38.3963C38.6918 7.44602 39.169 6.84091 39.8281 6.40341C40.4872 5.96023 41.3139 5.73864 42.3082 5.73864C43.2173 5.73864 44.0099 5.9375 44.6861 6.33523C45.3679 6.72727 45.8963 7.29261 46.2713 8.03125C46.652 8.7642 46.8395 9.64205 46.8338 10.6648V19H43.2031V11.3125C43.2088 10.5057 43.0043 9.87784 42.5895 9.42898C42.1804 8.98011 41.6065 8.75568 40.8679 8.75568C40.3736 8.75568 39.9361 8.8608 39.5554 9.07102C39.1804 9.28125 38.8849 9.58807 38.669 9.99148C38.4588 10.3892 38.3509 10.8693 38.3452 11.4318ZM49.6911 19V5.90909H53.3217V19H49.6911ZM51.5149 4.22159C50.9751 4.22159 50.5121 4.04261 50.1257 3.68466C49.745 3.32102 49.5547 2.88636 49.5547 2.38068C49.5547 1.88068 49.745 1.4517 50.1257 1.09375C50.5121 0.730113 50.9751 0.548295 51.5149 0.548295C52.0547 0.548295 52.5149 0.730113 52.8956 1.09375C53.282 1.4517 53.4751 1.88068 53.4751 2.38068C53.4751 2.88636 53.282 3.32102 52.8956 3.68466C52.5149 4.04261 52.0547 4.22159 51.5149 4.22159ZM67.1222 9.64205L63.7983 9.84659C63.7415 9.5625 63.6193 9.30682 63.4318 9.07955C63.2443 8.84659 62.9972 8.66193 62.6903 8.52557C62.3892 8.38352 62.0284 8.3125 61.608 8.3125C61.0455 8.3125 60.571 8.43182 60.1847 8.67045C59.7983 8.90341 59.6051 9.21591 59.6051 9.60795C59.6051 9.92045 59.7301 10.1847 59.9801 10.4006C60.2301 10.6165 60.6591 10.7898 61.267 10.9205L63.6364 11.3977C64.9091 11.6591 65.858 12.0795 66.483 12.6591C67.108 13.2386 67.4205 14 67.4205 14.9432C67.4205 15.8011 67.1676 16.554 66.6619 17.2017C66.1619 17.8494 65.4744 18.3551 64.5994 18.7188C63.7301 19.0767 62.7273 19.2557 61.5909 19.2557C59.858 19.2557 58.4773 18.8949 57.4489 18.1733C56.4261 17.446 55.8267 16.4574 55.6506 15.2074L59.2216 15.0199C59.3295 15.5483 59.5909 15.9517 60.0057 16.2301C60.4205 16.5028 60.9517 16.6392 61.5994 16.6392C62.2358 16.6392 62.7472 16.517 63.1335 16.2727C63.5256 16.0227 63.7244 15.7017 63.7301 15.3097C63.7244 14.9801 63.5852 14.7102 63.3125 14.5C63.0398 14.2841 62.6193 14.1193 62.0511 14.0057L59.7841 13.554C58.5057 13.2983 57.554 12.8551 56.929 12.2244C56.3097 11.5937 56 10.7898 56 9.8125C56 8.97159 56.2273 8.24716 56.6818 7.6392C57.142 7.03125 57.7869 6.5625 58.6165 6.23295C59.4517 5.90341 60.429 5.73864 61.5483 5.73864C63.2017 5.73864 64.5028 6.08807 65.4517 6.78693C66.4063 7.4858 66.9631 8.4375 67.1222 9.64205Z" fill="black"/>
<path d="M69.7749 19V1.54545H76.6612C77.9851 1.54545 79.1129 1.7983 80.0447 2.30398C80.9766 2.80398 81.6868 3.5 82.1754 4.39204C82.6697 5.27841 82.9169 6.30114 82.9169 7.46023C82.9169 8.61932 82.6669 9.64205 82.1669 10.5284C81.6669 11.4148 80.9425 12.1051 79.9936 12.5994C79.0504 13.0937 77.9084 13.3409 76.5675 13.3409H72.1783V10.3835H75.9709C76.6811 10.3835 77.2663 10.2614 77.7266 10.017C78.1925 9.76705 78.5391 9.4233 78.7663 8.9858C78.9993 8.54261 79.1158 8.03409 79.1158 7.46023C79.1158 6.88068 78.9993 6.375 78.7663 5.94318C78.5391 5.50568 78.1925 5.16761 77.7266 4.92898C77.2607 4.68466 76.6697 4.5625 75.9538 4.5625H73.4652V19H69.7749ZM91.0007 19.2557C89.6541 19.2557 88.495 18.983 87.5234 18.4375C86.5575 17.8864 85.8132 17.108 85.2905 16.1023C84.7678 15.0909 84.5064 13.8949 84.5064 12.5142C84.5064 11.1676 84.7678 9.9858 85.2905 8.96875C85.8132 7.9517 86.549 7.15909 87.4979 6.59091C88.4524 6.02273 89.5717 5.73864 90.8558 5.73864C91.7195 5.73864 92.5234 5.87784 93.2678 6.15625C94.0178 6.42898 94.6712 6.84091 95.228 7.39205C95.7905 7.94318 96.228 8.63636 96.5405 9.47159C96.853 10.3011 97.0092 11.2727 97.0092 12.3864V13.3835H85.9553V11.1335H93.5916C93.5916 10.6108 93.478 10.1477 93.2507 9.74432C93.0234 9.34091 92.7081 9.02557 92.3047 8.7983C91.907 8.56534 91.4439 8.44886 90.9155 8.44886C90.3643 8.44886 89.8757 8.5767 89.4496 8.83239C89.0291 9.08239 88.6996 9.42045 88.4609 9.84659C88.2223 10.267 88.1001 10.7358 88.0945 11.2528V13.392C88.0945 14.0398 88.2138 14.5994 88.4524 15.071C88.6967 15.5426 89.0405 15.9062 89.4837 16.1619C89.9268 16.4176 90.4524 16.5455 91.0604 16.5455C91.4638 16.5455 91.8331 16.4886 92.1683 16.375C92.5036 16.2614 92.7905 16.0909 93.0291 15.8636C93.2678 15.6364 93.4496 15.358 93.5746 15.0284L96.9325 15.25C96.7621 16.0568 96.4126 16.7614 95.8842 17.3636C95.3615 17.9602 94.6854 18.4261 93.8558 18.7614C93.032 19.0909 92.0803 19.2557 91.0007 19.2557ZM99.3786 19V5.90909H102.898V8.19318H103.035C103.273 7.38068 103.674 6.76705 104.237 6.35227C104.799 5.93182 105.447 5.72159 106.18 5.72159C106.362 5.72159 106.558 5.73295 106.768 5.75568C106.978 5.77841 107.163 5.80966 107.322 5.84943V9.07102C107.151 9.01989 106.915 8.97443 106.614 8.93466C106.313 8.89489 106.038 8.875 105.788 8.875C105.254 8.875 104.776 8.99148 104.356 9.22443C103.941 9.4517 103.612 9.76989 103.367 10.179C103.129 10.5881 103.009 11.0597 103.009 11.5938V19H99.3786ZM120.091 9.64205L116.767 9.84659C116.71 9.5625 116.588 9.30682 116.401 9.07955C116.213 8.84659 115.966 8.66193 115.659 8.52557C115.358 8.38352 114.997 8.3125 114.577 8.3125C114.014 8.3125 113.54 8.43182 113.153 8.67045C112.767 8.90341 112.574 9.21591 112.574 9.60795C112.574 9.92045 112.699 10.1847 112.949 10.4006C113.199 10.6165 113.628 10.7898 114.236 10.9205L116.605 11.3977C117.878 11.6591 118.827 12.0795 119.452 12.6591C120.077 13.2386 120.389 14 120.389 14.9432C120.389 15.8011 120.136 16.554 119.631 17.2017C119.131 17.8494 118.443 18.3551 117.568 18.7188C116.699 19.0767 115.696 19.2557 114.56 19.2557C112.827 19.2557 111.446 18.8949 110.418 18.1733C109.395 17.446 108.795 16.4574 108.619 15.2074L112.19 15.0199C112.298 15.5483 112.56 15.9517 112.974 16.2301C113.389 16.5028 113.92 16.6392 114.568 16.6392C115.205 16.6392 115.716 16.517 116.102 16.2727C116.494 16.0227 116.693 15.7017 116.699 15.3097C116.693 14.9801 116.554 14.7102 116.281 14.5C116.009 14.2841 115.588 14.1193 115.02 14.0057L112.753 13.554C111.474 13.2983 110.523 12.8551 109.898 12.2244C109.278 11.5937 108.969 10.7898 108.969 9.8125C108.969 8.97159 109.196 8.24716 109.651 7.6392C110.111 7.03125 110.756 6.5625 111.585 6.23295C112.42 5.90341 113.398 5.73864 114.517 5.73864C116.17 5.73864 117.472 6.08807 118.42 6.78693C119.375 7.4858 119.932 8.4375 120.091 9.64205ZM128.59 19.2557C127.266 19.2557 126.121 18.9744 125.156 18.4119C124.195 17.8437 123.454 17.054 122.931 16.0426C122.408 15.0256 122.147 13.8466 122.147 12.5057C122.147 11.1534 122.408 9.97159 122.931 8.96023C123.454 7.94318 124.195 7.15341 125.156 6.59091C126.121 6.02273 127.266 5.73864 128.59 5.73864C129.914 5.73864 131.056 6.02273 132.016 6.59091C132.982 7.15341 133.727 7.94318 134.249 8.96023C134.772 9.97159 135.033 11.1534 135.033 12.5057C135.033 13.8466 134.772 15.0256 134.249 16.0426C133.727 17.054 132.982 17.8437 132.016 18.4119C131.056 18.9744 129.914 19.2557 128.59 19.2557ZM128.607 16.4432C129.21 16.4432 129.712 16.2727 130.116 15.9318C130.519 15.5852 130.823 15.1136 131.028 14.517C131.238 13.9205 131.343 13.2415 131.343 12.4801C131.343 11.7188 131.238 11.0398 131.028 10.4432C130.823 9.84659 130.519 9.375 130.116 9.02841C129.712 8.68182 129.21 8.50852 128.607 8.50852C127.999 8.50852 127.488 8.68182 127.073 9.02841C126.664 9.375 126.354 9.84659 126.144 10.4432C125.94 11.0398 125.837 11.7188 125.837 12.4801C125.837 13.2415 125.94 13.9205 126.144 14.517C126.354 15.1136 126.664 15.5852 127.073 15.9318C127.488 16.2727 127.999 16.4432 128.607 16.4432ZM141.025 11.4318V19H137.394V5.90909H140.854V8.21875H141.008C141.298 7.45739 141.783 6.85511 142.465 6.41193C143.147 5.96307 143.974 5.73864 144.945 5.73864C145.854 5.73864 146.647 5.9375 147.323 6.33523C147.999 6.73295 148.525 7.30114 148.9 8.03977C149.275 8.77273 149.462 9.64773 149.462 10.6648V19H145.832V11.3125C145.837 10.5114 145.633 9.88636 145.218 9.4375C144.803 8.98295 144.232 8.75568 143.505 8.75568C143.016 8.75568 142.585 8.8608 142.21 9.07102C141.84 9.28125 141.55 9.58807 141.34 9.99148C141.136 10.3892 141.031 10.8693 141.025 11.4318Z" fill="#276749"/>
<path d="M151.727 4.58807V1.54545H166.062V4.58807H160.719V19H157.071V4.58807H151.727ZM172.371 19.2557C171.048 19.2557 169.903 18.9744 168.937 18.4119C167.977 17.8437 167.235 17.054 166.712 16.0426C166.19 15.0256 165.928 13.8466 165.928 12.5057C165.928 11.1534 166.19 9.97159 166.712 8.96023C167.235 7.94318 167.977 7.15341 168.937 6.59091C169.903 6.02273 171.048 5.73864 172.371 5.73864C173.695 5.73864 174.837 6.02273 175.798 6.59091C176.763 7.15341 177.508 7.94318 178.031 8.96023C178.553 9.97159 178.815 11.1534 178.815 12.5057C178.815 13.8466 178.553 15.0256 178.031 16.0426C177.508 17.054 176.763 17.8437 175.798 18.4119C174.837 18.9744 173.695 19.2557 172.371 19.2557ZM172.388 16.4432C172.991 16.4432 173.494 16.2727 173.897 15.9318C174.3 15.5852 174.604 15.1136 174.809 14.517C175.019 13.9205 175.124 13.2415 175.124 12.4801C175.124 11.7188 175.019 11.0398 174.809 10.4432C174.604 9.84659 174.3 9.375 173.897 9.02841C173.494 8.68182 172.991 8.50852 172.388 8.50852C171.781 8.50852 171.269 8.68182 170.854 9.02841C170.445 9.375 170.136 9.84659 169.925 10.4432C169.721 11.0398 169.619 11.7188 169.619 12.4801C169.619 13.2415 169.721 13.9205 169.925 14.517C170.136 15.1136 170.445 15.5852 170.854 15.9318C171.269 16.2727 171.781 16.4432 172.388 16.4432ZM183.741 5.90909L186.144 10.4858L188.607 5.90909H192.332L188.539 12.4545L192.434 19H188.727L186.144 14.4744L183.604 19H179.854L183.741 12.4545L179.991 5.90909H183.741ZM194.488 19V5.90909H198.119V19H194.488ZM196.312 4.22159C195.772 4.22159 195.309 4.04261 194.923 3.68466C194.542 3.32102 194.352 2.88636 194.352 2.38068C194.352 1.88068 194.542 1.4517 194.923 1.09375C195.309 0.730113 195.772 0.548295 196.312 0.548295C196.852 0.548295 197.312 0.730113 197.692 1.09375C198.079 1.4517 198.272 1.88068 198.272 2.38068C198.272 2.88636 198.079 3.32102 197.692 3.68466C197.312 4.04261 196.852 4.22159 196.312 4.22159ZM206.942 19.2557C205.601 19.2557 204.447 18.9716 203.482 18.4034C202.521 17.8295 201.783 17.0341 201.266 16.017C200.754 15 200.499 13.8295 200.499 12.5057C200.499 11.1648 200.757 9.98864 201.274 8.97727C201.797 7.96023 202.538 7.16761 203.499 6.59943C204.459 6.02557 205.601 5.73864 206.925 5.73864C208.067 5.73864 209.067 5.94602 209.925 6.36079C210.783 6.77557 211.462 7.35795 211.962 8.10795C212.462 8.85795 212.737 9.73864 212.788 10.75H209.362C209.266 10.0966 209.01 9.57102 208.595 9.1733C208.186 8.76989 207.649 8.56818 206.984 8.56818C206.422 8.56818 205.93 8.72159 205.51 9.02841C205.095 9.32955 204.771 9.76989 204.538 10.3494C204.305 10.929 204.189 11.6307 204.189 12.4545C204.189 13.2898 204.303 14 204.53 14.5852C204.763 15.1705 205.089 15.6165 205.51 15.9233C205.93 16.2301 206.422 16.3835 206.984 16.3835C207.399 16.3835 207.771 16.2983 208.101 16.1278C208.436 15.9574 208.712 15.7102 208.928 15.3864C209.149 15.0568 209.294 14.6619 209.362 14.2017H212.788C212.732 15.2017 212.459 16.0824 211.97 16.8438C211.487 17.5994 210.82 18.1903 209.967 18.6165C209.115 19.0426 208.107 19.2557 206.942 19.2557Z" fill="#C53030"/>
</svg>
